<svg width="39" height="39" viewBox="0 0 39 39" fill="none" xmlns="http://www.w3.org/2000/svg">
<path d="M19.4993 38.9986C30.2685 38.9986 38.9986 30.2685 38.9986 19.4993C38.9986 8.73013 30.2685 0 19.4993 0C8.73013 0 0 8.73013 0 19.4993C0 30.2685 8.73013 38.9986 19.4993 38.9986Z" fill="white"/>
<g clip-path="url(#clip0_802_416)">
<path fill-rule="evenodd" clip-rule="evenodd" d="M17.5139 19.5257L13.2281 24.4178H15.1267L18.4072 20.6633L21.2979 24.4186L25 24.3984L20.3063 18.1916L24.3118 13.6034L22.4437 13.5825L19.4181 17.0307L16.8294 13.5881L13 13.584L17.5139 19.5257ZM22.7579 23.2917L21.7998 23.2887L15.2174 14.6713H16.248L22.7579 23.2917Z" fill="black"/>
</g>
<defs>
<clipPath id="clip0_802_416">
<rect width="12" height="12" fill="white" transform="translate(13 13)"/>
</clipPath>
</defs>
</svg>
